<svg width="145" height="101" viewBox="0 0 145 101" fill="none" xmlns="http://www.w3.org/2000/svg">
<path d="M77.665 67H65.42V65.025H77.665V67ZM94.8265 33.425C96.4065 33.425 97.7495 34.768 97.7495 36.348C97.7495 38.007 96.4065 39.35 94.8265 39.35C93.1675 39.35 91.8245 38.007 91.8245 36.348C91.8245 34.768 93.1675 33.425 94.8265 33.425ZM110.548 44.406H109.758C107.467 44.406 107.072 45.749 107.072 47.882V65.025H116.71V67H74.5235V65.025H88.1905C84.0035 63.05 81.4755 59.574 81.4755 55.15C81.4755 47.961 87.9535 43.537 98.1445 43.537H110.548V44.406ZM101.226 65.025V46.381C98.1445 45.433 94.6685 45.67 91.9035 47.092C89.1385 48.514 87.2425 51.279 87.2425 55.15C87.2425 61.154 90.9555 64.472 96.0115 65.025H101.226ZM131.415 32.793V33.662C128.334 33.662 127.939 35.005 127.939 37.138V56.019C127.939 59.416 126.912 62.102 125.095 63.998C123.278 65.894 120.908 67 118.064 67H113.561V65.025H114.904C116.563 65.025 118.38 64.472 119.644 63.208C120.908 61.944 121.777 59.969 122.014 57.046V32.793H131.415ZM144.268 32.872V33.583C141.187 33.583 140.871 35.005 140.871 37.138V67H134.946V32.793L144.268 32.872Z" fill="white"/>
<path d="M30.7855 89.5086C39.6766 81.9641 36.8664 70.1856 42.8646 63.5887C47.3789 58.6237 55.1162 59.3698 59.6879 60.3564C59.6879 60.3564 61.937 56.2119 63.1554 51.0007C63.5627 49.2525 66.9261 50.5061 66.6341 51.9768C62.9309 70.5973 41.4058 83.3587 41.4058 83.3587C41.4058 83.3587 57.1234 81.0738 65.5 65C66.3618 68.1819 69.0611 76.9458 61.587 83.7961C51.4559 93.0907 28.7094 91.2683 30.7855 89.5086Z" fill="white"/>
<path d="M25.256 20.736C26.873 20.736 28.182 21.968 28.182 23.585C28.182 25.202 26.873 26.434 25.256 26.434C23.716 26.434 22.407 25.202 22.407 23.585C22.407 21.968 23.716 20.736 25.256 20.736ZM13.629 30.823C17.248 30.823 19.712 31.362 21.021 32.517C22.253 33.672 22.253 35.058 22.253 38.677H21.252C21.021 34.673 18.326 33.364 14.707 33.364C9.702 33.364 7.315 36.906 7.315 42.45C7.315 45.145 7.854 47.532 9.086 49.303C10.318 51.074 12.166 52.152 14.707 52.152H28.49C30.107 52.152 31.801 51.613 33.11 50.381C34.342 49.149 35.189 47.224 35.42 44.375V31.516H44.506V32.286H43.736C41.503 32.286 41.118 33.672 41.118 35.751V43.374C41.118 46.685 40.117 49.303 38.423 51.151C36.729 52.999 34.265 54 31.57 54H13.629C9.856 54 6.853 52.691 4.774 50.612C2.618 48.533 1.54 45.607 1.54 42.45C1.54 39.293 2.618 36.367 4.774 34.211C6.853 32.132 9.856 30.823 13.629 30.823ZM57.4155 20.736V21.429C54.4125 21.429 54.1045 22.815 54.1045 24.894V54H48.3295V20.659L57.4155 20.736Z" fill="white"/>
</svg>
